<?xml version="1.0" encoding="UTF-8"?>
<svg xmlns="http://www.w3.org/2000/svg" xmlns:xlink="http://www.w3.org/1999/xlink" width="65pt" height="65pt" viewBox="0 0 65 65" version="1.1">
<g id="surface1">
<path style=" stroke:none;fill-rule:nonzero;fill:rgb(94.117647%,31.764706%,20%);fill-opacity:1;" d="M 62.125 29.757812 L 35.242188 2.875 C 33.695312 1.328125 31.183594 1.328125 29.632812 2.875 L 24.050781 8.457031 L 31.132812 15.539062 C 32.777344 14.984375 34.664062 15.355469 35.976562 16.667969 C 37.296875 17.988281 37.664062 19.890625 37.09375 21.542969 L 43.921875 28.367188 C 45.574219 27.800781 47.476562 28.167969 48.796875 29.488281 C 50.640625 31.332031 50.640625 34.316406 48.796875 36.160156 C 46.953125 38.003906 43.964844 38.003906 42.121094 36.160156 C 40.734375 34.773438 40.390625 32.738281 41.09375 31.03125 L 34.730469 24.664062 L 34.730469 41.414062 C 35.179688 41.636719 35.601562 41.933594 35.976562 42.308594 C 37.820312 44.152344 37.820312 47.136719 35.976562 48.980469 C 34.132812 50.824219 31.144531 50.824219 29.304688 48.980469 C 27.460938 47.136719 27.460938 44.148438 29.304688 42.308594 C 29.761719 41.851562 30.289062 41.507812 30.851562 41.277344 L 30.851562 24.371094 C 30.289062 24.140625 29.761719 23.800781 29.304688 23.339844 C 27.910156 21.945312 27.574219 19.898438 28.289062 18.183594 L 21.308594 11.199219 L 2.875 29.632812 C 1.324219 31.183594 1.324219 33.695312 2.875 35.242188 L 29.757812 62.125 C 31.304688 63.675781 33.816406 63.675781 35.367188 62.125 L 62.125 35.367188 C 63.675781 33.820312 63.675781 31.304688 62.125 29.757812 Z M 62.125 29.757812 "/>
</g>
</svg>
