<?xml version="1.0" encoding="UTF-8"?>
<svg xmlns="http://www.w3.org/2000/svg" xmlns:xlink="http://www.w3.org/1999/xlink" width="65px" height="65px" viewBox="0 0 65 65" version="1.1">
<g id="surface1">
<path style=" stroke:none;fill-rule:nonzero;fill:rgb(0%,0%,0%);fill-opacity:1;" d="M 18.902344 28.804688 C 16.917969 28.886719 15.796875 30.929688 15.796875 33.394531 C 15.777344 35.898438 16.9375 37.835938 18.882812 37.875 C 20.898438 37.914062 22.097656 35.957031 22.097656 33.265625 C 22.097656 30.753906 20.9375 28.71875 18.902344 28.804688 Z M 18.902344 28.804688 "/>
<path style=" stroke:none;fill-rule:nonzero;fill:rgb(0%,0%,0%);fill-opacity:1;" d="M 1.238281 5.125 L 1.238281 59.734375 L 39.644531 64.992188 L 39.644531 59.378906 C 39.730469 59.386719 39.8125 59.394531 39.902344 59.394531 L 59.578125 59.394531 C 61.878906 59.394531 63.75 57.519531 63.75 55.21875 L 63.75 9.605469 C 63.75 7.304688 61.878906 5.433594 59.578125 5.433594 L 39.902344 5.433594 C 39.8125 5.433594 39.730469 5.441406 39.644531 5.445312 L 39.644531 0 Z M 7.003906 39.855469 C 5.753906 39.808594 4.542969 39.40625 3.945312 39.007812 L 4.433594 36.75 C 5.082031 37.136719 6.09375 37.539062 7.152344 37.558594 C 8.308594 37.578125 8.929688 37.050781 8.929688 36.230469 C 8.929688 35.445312 8.390625 35 7.054688 34.464844 C 5.242188 33.765625 4.085938 32.660156 4.085938 30.894531 C 4.085938 28.824219 5.609375 27.152344 8.207031 27.003906 C 9.484375 26.929688 10.441406 27.175781 11.132812 27.476562 L 10.546875 29.828125 C 10.082031 29.601562 9.265625 29.277344 8.160156 29.324219 C 7.066406 29.367188 6.546875 29.941406 6.546875 30.582031 C 6.546875 31.367188 7.167969 31.703125 8.609375 32.28125 C 10.632812 33.074219 11.605469 34.238281 11.605469 36.042969 C 11.605469 38.191406 10.097656 39.964844 7.003906 39.855469 Z M 24.554688 42.671875 C 22.582031 42 20.976562 41.339844 19.210938 40.503906 C 18.917969 40.375 18.609375 40.304688 18.304688 40.273438 C 15.445312 39.976562 12.871094 37.742188 12.871094 33.523438 C 12.871094 29.648438 15.1875 26.601562 18.976562 26.378906 C 23.070312 26.144531 25.414062 29.261719 25.414062 33.101562 C 25.414062 36.289062 23.933594 38.507812 22.117188 39.285156 L 22.117188 39.367188 C 23.175781 39.703125 24.367188 39.992188 25.476562 40.253906 Z M 37.210938 40.695312 L 27.546875 40.367188 L 27.546875 26.117188 L 30.925781 25.929688 L 30.925781 37.71875 L 37.210938 37.824219 Z M 39.902344 7.816406 L 59.578125 7.816406 C 60.5625 7.816406 61.367188 8.621094 61.367188 9.605469 L 61.367188 55.21875 C 61.367188 56.207031 60.5625 57.007812 59.578125 57.007812 L 39.902344 57.007812 C 39.8125 57.007812 39.726562 56.996094 39.644531 56.980469 L 39.644531 44.304688 L 41.433594 44.304688 L 41.433594 43 L 39.644531 43 L 39.644531 39.746094 L 40.660156 39.746094 L 40.660156 38.441406 L 39.644531 38.441406 L 39.644531 31.484375 L 41.398438 31.484375 L 41.398438 30.179688 L 39.644531 30.179688 L 39.644531 23.292969 L 45.070312 23.292969 L 45.070312 21.988281 L 39.644531 21.988281 L 39.644531 7.84375 C 39.726562 7.832031 39.8125 7.816406 39.902344 7.816406 Z M 39.902344 7.816406 "/>
<path style=" stroke:none;fill-rule:nonzero;fill:rgb(0%,0%,0%);fill-opacity:1;" d="M 40.769531 26.023438 L 45 26.023438 L 45 27.328125 L 40.769531 27.328125 Z M 40.769531 26.023438 "/>
<path style=" stroke:none;fill-rule:nonzero;fill:rgb(0%,0%,0%);fill-opacity:1;" d="M 45.792969 26.023438 L 50.027344 26.023438 L 50.027344 27.328125 L 45.792969 27.328125 Z M 45.792969 26.023438 "/>
<path style=" stroke:none;fill-rule:nonzero;fill:rgb(0%,0%,0%);fill-opacity:1;" d="M 42.21875 30.179688 L 47.066406 30.179688 L 47.066406 31.484375 L 42.21875 31.484375 Z M 42.21875 30.179688 "/>
<path style=" stroke:none;fill-rule:nonzero;fill:rgb(0%,0%,0%);fill-opacity:1;" d="M 47.972656 30.179688 L 52.820312 30.179688 L 52.820312 31.484375 L 47.972656 31.484375 Z M 47.972656 30.179688 "/>
<path style=" stroke:none;fill-rule:nonzero;fill:rgb(0%,0%,0%);fill-opacity:1;" d="M 40.566406 34.414062 L 42.625 34.414062 L 42.625 35.71875 L 40.566406 35.71875 Z M 40.566406 34.414062 "/>
<path style=" stroke:none;fill-rule:nonzero;fill:rgb(0%,0%,0%);fill-opacity:1;" d="M 43.007812 34.414062 L 45.066406 34.414062 L 45.066406 35.71875 L 43.007812 35.71875 Z M 43.007812 34.414062 "/>
<path style=" stroke:none;fill-rule:nonzero;fill:rgb(0%,0%,0%);fill-opacity:1;" d="M 45.410156 34.414062 L 47.46875 34.414062 L 47.46875 35.71875 L 45.410156 35.71875 Z M 45.410156 34.414062 "/>
<path style=" stroke:none;fill-rule:nonzero;fill:rgb(0%,0%,0%);fill-opacity:1;" d="M 47.855469 34.414062 L 49.910156 34.414062 L 49.910156 35.71875 L 47.855469 35.71875 Z M 47.855469 34.414062 "/>
<path style=" stroke:none;fill-rule:nonzero;fill:rgb(0%,0%,0%);fill-opacity:1;" d="M 50.398438 34.414062 L 52.453125 34.414062 L 52.453125 35.71875 L 50.398438 35.71875 Z M 50.398438 34.414062 "/>
<path style=" stroke:none;fill-rule:nonzero;fill:rgb(0%,0%,0%);fill-opacity:1;" d="M 52.839844 34.414062 L 54.894531 34.414062 L 54.894531 35.71875 L 52.839844 35.71875 Z M 52.839844 34.414062 "/>
<path style=" stroke:none;fill-rule:nonzero;fill:rgb(0%,0%,0%);fill-opacity:1;" d="M 55.242188 34.414062 L 57.296875 34.414062 L 57.296875 35.71875 L 55.242188 35.71875 Z M 55.242188 34.414062 "/>
<path style=" stroke:none;fill-rule:nonzero;fill:rgb(0%,0%,0%);fill-opacity:1;" d="M 57.683594 34.414062 L 59.738281 34.414062 L 59.738281 35.71875 L 57.683594 35.71875 Z M 57.683594 34.414062 "/>
<path style=" stroke:none;fill-rule:nonzero;fill:rgb(0%,0%,0%);fill-opacity:1;" d="M 41.207031 38.441406 L 44.132812 38.441406 L 44.132812 39.746094 L 41.207031 39.746094 Z M 41.207031 38.441406 "/>
<path style=" stroke:none;fill-rule:nonzero;fill:rgb(0%,0%,0%);fill-opacity:1;" d="M 44.675781 38.441406 L 47.601562 38.441406 L 47.601562 39.746094 L 44.675781 39.746094 Z M 44.675781 38.441406 "/>
<path style=" stroke:none;fill-rule:nonzero;fill:rgb(0%,0%,0%);fill-opacity:1;" d="M 48.148438 38.441406 L 51.074219 38.441406 L 51.074219 39.746094 L 48.148438 39.746094 Z M 48.148438 38.441406 "/>
<path style=" stroke:none;fill-rule:nonzero;fill:rgb(0%,0%,0%);fill-opacity:1;" d="M 51.566406 38.441406 L 54.492188 38.441406 L 54.492188 39.746094 L 51.566406 39.746094 Z M 51.566406 38.441406 "/>
<path style=" stroke:none;fill-rule:nonzero;fill:rgb(0%,0%,0%);fill-opacity:1;" d="M 55.042969 38.441406 L 57.964844 38.441406 L 57.964844 39.746094 L 55.042969 39.746094 Z M 55.042969 38.441406 "/>
<path style=" stroke:none;fill-rule:nonzero;fill:rgb(0%,0%,0%);fill-opacity:1;" d="M 41.863281 43 L 44.195312 43 L 44.195312 44.304688 L 41.863281 44.304688 Z M 41.863281 43 "/>
<path style=" stroke:none;fill-rule:nonzero;fill:rgb(0%,0%,0%);fill-opacity:1;" d="M 44.632812 43 L 46.960938 43 L 46.960938 44.304688 L 44.632812 44.304688 Z M 44.632812 43 "/>
<path style=" stroke:none;fill-rule:nonzero;fill:rgb(0%,0%,0%);fill-opacity:1;" d="M 47.355469 43 L 49.683594 43 L 49.683594 44.304688 L 47.355469 44.304688 Z M 47.355469 43 "/>
<path style=" stroke:none;fill-rule:nonzero;fill:rgb(0%,0%,0%);fill-opacity:1;" d="M 50.125 43 L 52.453125 43 L 52.453125 44.304688 L 50.125 44.304688 Z M 50.125 43 "/>
</g>
</svg>
